<svg width="200" height="40" viewBox="0 0 200 40" fill="none" xmlns="http://www.w3.org/2000/svg">
  <!-- Fox icon circle -->
  <circle cx="20" cy="20" r="18" fill="#FF6B35"/>

  <!-- Fox silhouette -->
  <path d="M20 8c-1.5 0-2.8.5-3.8 1.3-.3.2-.5.5-.7.8-.5.8-.8 1.8-.8 2.9 0 .5.1 1 .2 1.5l-2.5 1.5c-.3.2-.4.5-.4.8s.2.6.4.8l2.5 1.5c.5 1.8 1.8 3.2 3.5 3.8v5.1c0 .4.3.8.8.8s.8-.3.8-.8v-5.1c1.7-.6 3-2 3.5-3.8l2.5-1.5c.3-.2.4-.5.4-.8s-.2-.6-.4-.8l-2.5-1.5c.1-.5.2-1 .2-1.5 0-1.1-.3-2.1-.8-2.9-.2-.3-.4-.6-.7-.8-1-.8-2.3-1.3-3.8-1.3z" fill="white" opacity="0.9"/>

  <!-- Heartbeat line -->
  <path d="M11 20h3l1.5-3 2 6 1.5-3h3" stroke="white" stroke-width="1.5" stroke-linecap="round" stroke-linejoin="round" fill="none"/>

  <!-- IncidentFox text in white for dark mode -->
  <text x="45" y="27" font-family="system-ui, -apple-system, sans-serif" font-size="18" font-weight="600" fill="#ffffff">IncidentFox</text>
</svg>
